<svg xmlns="http://www.w3.org/2000/svg" viewBox="0 0 464.00 464.00" width="464" height="464" fill="currentColor" style="color:#131211"><g transform="translate(12,12)"><circle cx="220.0" cy="220.0" r="218.5" fill="none" stroke="currentColor" stroke-width="3"/><circle cx="220.0" cy="220.0" r="204.0" fill="none" stroke="currentColor" stroke-width="1.25"/><g transform="translate(76.56,78.00) scale(0.37500)"><g transform="scale(0.125)"><g transform="translate(0.000000,448.000000) scale(0.100000,-0.100000)" fill="currentColor" stroke="none">
<path d="M2984 4463 c-17 -54 -29 -75 -48 -91 -22 -17 -101 -133 -129 -188 -9
-17 -23 -36 -31 -44 -19 -15 -96 -131 -121 -180 -9 -19 -28 -46 -41 -60 -32
-35 -114 -161 -114 -177 0 -7 -13 -27 -29 -46 -16 -18 -125 -178 -243 -355
-117 -177 -223 -337 -235 -355 -12 -17 -49 -72 -82 -122 -32 -49 -68 -102 -78
-117 -10 -15 -44 -67 -77 -115 -32 -48 -71 -106 -87 -128 -65 -92 -481 -718
-542 -815 -36 -58 -74 -117 -84 -132 -10 -15 -43 -64 -74 -110 -31 -46 -62
-94 -69 -108 -7 -14 -27 -41 -44 -60 -17 -20 -51 -68 -76 -108 -25 -40 -59
-92 -77 -115 -37 -50 -259 -373 -287 -420 -28 -45 -222 -344 -256 -392 -15
-22 -35 -54 -44 -72 -9 -18 -39 -59 -66 -92 l-51 -61 399 0 400 0 5 28 c3 15
32 67 65 117 32 50 97 155 144 235 47 80 95 161 106 180 52 87 109 182 160
270 96 165 183 290 212 305 25 13 292 15 2025 15 1892 0 1998 -1 2027 -17 43
-26 121 -138 219 -319 15 -27 37 -58 49 -69 12 -11 35 -47 51 -80 16 -33 44
-83 62 -111 17 -29 46 -76 64 -105 17 -30 43 -70 58 -89 29 -38 80 -120 119
-190 13 -25 38 -58 55 -73 17 -16 33 -43 37 -63 l6 -34 380 0 380 0 -7 27 c-3
16 -24 51 -45 78 -21 28 -108 156 -193 285 -86 129 -174 262 -197 295 -22 33
-62 94 -88 135 -26 42 -59 93 -75 115 -15 22 -55 83 -90 135 -34 52 -72 109
-83 125 -23 32 -89 131 -158 235 -23 36 -51 71 -60 79 -10 8 -26 31 -36 50
-15 30 -145 229 -226 346 -12 17 -59 89 -106 160 -46 72 -111 170 -144 218
-32 49 -72 110 -89 136 -31 47 -92 141 -155 235 -19 29 -44 66 -54 82 -10 16
-28 43 -40 59 -11 17 -55 80 -96 141 -41 62 -120 178 -175 259 -55 81 -129
192 -165 246 -36 54 -81 122 -101 151 -20 29 -106 159 -191 288 -85 129 -181
275 -214 324 -32 49 -70 105 -83 125 -13 20 -34 48 -47 63 -12 15 -25 41 -29
58 l-7 30 -539 0 c-505 0 -540 -1 -545 -17z m824 -509 c33 -20 90 -92 126
-159 15 -27 37 -64 49 -82 12 -18 42 -66 67 -108 25 -42 59 -95 75 -118 17
-23 46 -70 65 -104 88 -156 146 -253 186 -310 24 -34 44 -66 44 -71 0 -5 17
-35 38 -68 21 -32 55 -90 76 -129 22 -38 53 -90 70 -115 18 -25 46 -70 62
-100 17 -30 68 -116 114 -190 46 -74 95 -155 109 -180 55 -93 87 -144 118
-186 18 -24 44 -65 58 -91 58 -105 81 -142 113 -171 24 -23 32 -38 32 -65 0
-19 -6 -40 -14 -46 -19 -16 -3323 -16 -3342 0 -24 20 -15 63 24 116 20 29 52
76 69 105 94 152 168 277 186 313 10 22 29 54 42 70 32 44 164 261 197 325 15
30 41 73 57 95 16 22 68 108 116 190 48 83 107 179 130 215 50 77 148 236 183
300 14 25 33 54 42 65 20 23 95 144 118 190 8 17 26 45 39 63 13 18 34 54 45
80 27 60 104 150 143 168 22 10 94 13 283 14 215 0 258 -2 280 -16z"/>
<path d="M11610 2240 l0 -2240 360 0 360 0 0 910 c0 1015 -4 959 68 980 52 16
2104 8 2252 -9 495 -54 711 -123 1005 -318 28 -18 56 -33 62 -33 7 0 34 -19
61 -43 27 -23 76 -62 108 -87 141 -108 249 -209 719 -665 176 -171 362 -351
413 -400 52 -50 124 -120 160 -156 37 -36 81 -75 99 -87 17 -13 37 -38 43 -57
l12 -35 414 0 415 0 -16 30 c-9 16 -19 30 -23 30 -4 0 -23 14 -42 32 -19 18
-87 79 -150 137 -63 57 -189 175 -280 261 -91 85 -257 240 -370 342 -113 103
-223 204 -245 224 -333 313 -759 665 -834 689 -11 3 -39 22 -61 40 -100 83
-392 198 -660 259 -65 15 -126 35 -140 46 l-25 20 22 19 c13 11 44 22 70 25
27 3 104 13 173 21 216 27 557 102 626 138 18 9 53 21 79 27 101 23 356 144
423 202 18 15 36 28 41 28 18 0 129 96 188 163 96 108 147 216 169 353 16 104
16 118 1 227 -21 143 -59 244 -132 346 -103 145 -227 255 -397 356 -158 92
-504 226 -699 270 -41 9 -103 24 -139 35 -92 26 -214 46 -535 86 -136 17 -272
47 -289 64 -7 7 -588 10 -1658 10 l-1648 0 0 -2240z m3300 1752 c258 -24 465
-56 580 -89 47 -14 123 -35 170 -48 292 -82 549 -274 620 -463 62 -164 46
-343 -45 -498 -157 -269 -624 -446 -1270 -484 -99 -5 -236 -15 -305 -21 -82
-7 -490 -9 -1197 -7 l-1073 3 -27 28 -28 27 -3 738 c-2 490 0 749 7 773 10 32
26 47 71 63 8 3 526 4 1150 2 1051 -3 1151 -5 1350 -24z"/>
<path d="M22750 4265 c0 -204 1 -215 21 -233 11 -11 34 -23 51 -26 17 -3 692
-6 1500 -6 1617 0 1514 4 1537 -61 8 -23 11 -582 11 -1985 l0 -1954 365 0 366
0 -1 1976 c-1 1783 0 1978 15 2000 8 13 21 24 28 24 6 0 671 1 1477 0 877 0
1481 4 1505 10 64 15 65 19 65 257 l0 213 -3470 0 -3470 0 0 -215z"/>
<path d="M34240 2240 l0 -2240 2695 0 2695 0 -1 210 c0 188 -2 211 -19 232
l-18 23 -2289 5 c-1784 4 -2293 8 -2309 17 -12 7 -27 27 -33 44 -8 22 -11 260
-11 781 0 804 -1 791 50 818 13 7 686 10 2131 10 1920 0 2114 1 2130 15 35 33
40 67 37 258 -3 172 -5 188 -23 207 -21 20 -22 20 -2142 20 l-2122 0 -28 24
-28 24 0 632 0 632 28 24 28 24 2205 0 c2388 0 2263 -3 2282 52 4 13 6 114 4
226 l-4 202 -2629 0 -2629 0 0 -2240z"/>
<path d="M44230 4471 c0 -19 47 -66 109 -107 36 -24 93 -67 126 -95 53 -45
153 -123 236 -183 15 -12 81 -64 146 -117 65 -52 132 -104 148 -114 17 -10 46
-33 65 -51 54 -50 130 -114 194 -164 32 -25 88 -69 124 -99 37 -30 84 -64 104
-77 20 -13 45 -32 55 -43 20 -21 131 -109 273 -216 51 -38 107 -82 124 -96 17
-15 87 -70 156 -122 69 -53 136 -105 150 -117 153 -127 341 -280 365 -295 17
-10 64 -48 106 -84 41 -36 125 -103 185 -148 60 -45 132 -100 159 -123 187
-150 237 -194 252 -223 17 -30 18 -97 21 -1014 l2 -983 365 0 365 0 0 988 c0
1115 -7 1013 80 1083 23 19 61 50 84 69 22 20 51 42 63 50 51 35 233 178 292
229 35 31 89 74 121 96 65 46 247 188 326 255 29 25 74 61 99 80 26 19 67 51
90 70 122 99 167 135 240 190 126 95 175 135 245 194 36 31 83 68 105 82 22
15 86 63 143 108 57 45 119 93 138 108 19 14 52 41 73 60 21 18 58 47 82 63
23 17 64 48 90 70 66 56 140 115 319 256 85 67 176 141 201 163 26 23 95 75
155 116 59 41 118 86 131 99 50 52 55 51 -385 51 l-408 0 -10 -29 c-7 -17 -42
-51 -90 -86 -43 -32 -103 -79 -133 -104 -78 -68 -138 -117 -242 -201 -99 -80
-328 -276 -394 -338 -22 -20 -69 -59 -105 -86 -36 -28 -118 -95 -183 -151 -65
-55 -156 -129 -202 -165 -46 -36 -105 -83 -132 -105 -115 -96 -245 -205 -330
-280 -51 -44 -134 -114 -184 -155 -51 -41 -127 -106 -171 -143 -43 -38 -102
-84 -130 -103 l-53 -34 -280 0 c-316 0 -319 1 -408 78 -27 23 -52 42 -57 42
-5 0 -29 19 -53 42 -50 49 -97 91 -192 168 -37 30 -97 80 -133 111 -37 30 -83
66 -102 79 -19 14 -89 72 -156 130 -67 58 -167 141 -223 185 -56 44 -146 118
-200 165 -54 47 -128 110 -166 140 -37 30 -82 67 -99 83 -17 15 -34 27 -39 27
-4 0 -27 18 -50 40 -74 69 -208 183 -357 303 -80 65 -183 150 -230 191 -47 40
-104 85 -128 100 -24 15 -50 42 -59 61 l-17 35 -403 0 c-222 0 -403 -4 -403
-9z"/>
<path d="M55780 2240 l0 -2240 2710 0 2710 0 0 219 0 219 -65 16 c-58 15 -273
16 -2324 16 l-2260 0 -26 22 -26 23 0 755 c1 415 1 770 1 788 0 22 8 41 25 57
l24 25 2119 0 2119 0 27 25 26 24 0 164 c0 91 3 178 6 195 5 26 1 36 -24 61
l-30 31 -2122 0 c-1626 0 -2126 2 -2137 11 -34 29 -35 49 -34 671 2 629 4 659
39 673 9 3 1002 6 2207 6 1331 -1 2206 3 2230 9 70 16 72 22 73 259 l1 211
-2634 0 -2635 0 0 -2240z"/>
</g></g></g><g transform="translate(68.90,172.00)"><g transform="translate(0.00,0.00) scale(1.71429)"><g transform="scale(0.125)"><g transform="translate(0.000000,448.000000) scale(0.100000,-0.100000)" fill="currentColor" stroke="none">
<path d="M2984 4463 c-17 -54 -29 -75 -48 -91 -22 -17 -101 -133 -129 -188 -9
-17 -23 -36 -31 -44 -19 -15 -96 -131 -121 -180 -9 -19 -28 -46 -41 -60 -32
-35 -114 -161 -114 -177 0 -7 -13 -27 -29 -46 -16 -18 -125 -178 -243 -355
-117 -177 -223 -337 -235 -355 -12 -17 -49 -72 -82 -122 -32 -49 -68 -102 -78
-117 -10 -15 -44 -67 -77 -115 -32 -48 -71 -106 -87 -128 -65 -92 -481 -718
-542 -815 -36 -58 -74 -117 -84 -132 -10 -15 -43 -64 -74 -110 -31 -46 -62
-94 -69 -108 -7 -14 -27 -41 -44 -60 -17 -20 -51 -68 -76 -108 -25 -40 -59
-92 -77 -115 -37 -50 -259 -373 -287 -420 -28 -45 -222 -344 -256 -392 -15
-22 -35 -54 -44 -72 -9 -18 -39 -59 -66 -92 l-51 -61 399 0 400 0 5 28 c3 15
32 67 65 117 32 50 97 155 144 235 47 80 95 161 106 180 52 87 109 182 160
270 96 165 183 290 212 305 25 13 292 15 2025 15 1892 0 1998 -1 2027 -17 43
-26 121 -138 219 -319 15 -27 37 -58 49 -69 12 -11 35 -47 51 -80 16 -33 44
-83 62 -111 17 -29 46 -76 64 -105 17 -30 43 -70 58 -89 29 -38 80 -120 119
-190 13 -25 38 -58 55 -73 17 -16 33 -43 37 -63 l6 -34 389 0 389 0 0 23 c-1
14 -13 29 -33 42 -17 11 -47 46 -67 77 -37 60 -289 441 -360 543 -22 33 -62
94 -88 135 -26 42 -59 93 -75 115 -15 22 -55 83 -90 135 -34 52 -72 109 -83
125 -23 32 -89 131 -158 235 -23 36 -51 71 -60 79 -10 8 -26 31 -36 50 -15 30
-145 229 -226 346 -12 17 -59 89 -106 160 -46 72 -111 170 -144 218 -32 49
-72 110 -89 136 -31 47 -92 141 -155 235 -19 29 -44 66 -54 82 -10 16 -28 43
-40 59 -11 17 -55 80 -96 141 -41 62 -120 178 -175 259 -55 81 -129 192 -165
246 -36 54 -81 122 -101 151 -20 29 -106 159 -191 288 -85 129 -181 275 -214
324 -32 49 -70 105 -83 125 -13 20 -34 48 -47 63 -12 15 -25 41 -29 58 l-7 30
-539 0 c-505 0 -540 -1 -545 -17z m824 -509 c33 -20 90 -92 126 -159 15 -27
37 -64 49 -82 12 -18 42 -66 67 -108 25 -42 59 -95 75 -118 17 -23 46 -70 65
-104 88 -156 146 -253 186 -310 24 -34 44 -66 44 -71 0 -5 17 -35 38 -68 21
-32 55 -90 76 -129 22 -38 53 -90 70 -115 18 -25 46 -70 62 -100 17 -30 68
-116 114 -190 46 -74 95 -155 109 -180 55 -93 87 -144 118 -186 18 -24 44 -65
58 -91 58 -105 81 -142 113 -171 24 -23 32 -38 32 -65 0 -19 -6 -40 -14 -46
-19 -16 -3323 -16 -3342 0 -24 20 -15 63 24 116 20 29 52 76 69 105 94 152
168 277 186 313 10 22 29 54 42 70 32 44 164 261 197 325 15 30 41 73 57 95
16 22 68 108 116 190 48 83 107 179 130 215 50 77 148 236 183 300 14 25 33
54 42 65 20 23 95 144 118 190 8 17 26 45 39 63 13 18 34 54 45 80 27 60 104
150 143 168 22 10 94 13 283 14 215 0 258 -2 280 -16z"/>
</g></g></g><g transform="translate(187.34,0.00) scale(1.71429)"><g transform="scale(0.125)"><g transform="translate(0.000000,448.000000) scale(0.100000,-0.100000)" fill="currentColor" stroke="none">
<path d="M0 2240 l0 -2240 2680 0 2680 0 0 235 0 235 -2285 0 c-2516 0 -2331
-5 -2354 61 -8 22 -11 259 -11 781 0 804 -1 791 50 818 13 7 686 10 2131 10
1920 0 2114 1 2130 15 35 33 40 67 37 258 -3 172 -5 188 -23 207 -21 20 -22
20 -2142 20 l-2122 0 -28 24 -28 24 0 631 0 630 23 23 23 23 2228 5 c2174 5
2229 5 2250 24 20 18 21 28 21 238 l0 218 -2630 0 -2630 0 0 -2240z"/>
</g></g></g></g><g transform="translate(124.47,341.00)"><path d="M10.255102040816325 21.367346938775505Q8.540816326530612 21.367346938775505 6.948979591836734 21.015306122448976Q5.357142857142857 20.663265306122444 4.13265306122449 19.882653061224488Q2.908163265306122 19.10204081632653 2.204081632653061 17.89285714285714Q1.4999999999999998 16.683673469387752 1.4999999999999998 14.999999999999996Q1.4999999999999998 14.816326530612242 1.5153061224489792 14.647959183673468Q1.5306122448979589 14.479591836734691 1.5306122448979589 14.357142857142854H4.959183673469387Q4.959183673469387 14.448979591836732 4.943877551020408 14.632653061224488Q4.928571428571428 14.816326530612242 4.928571428571428 14.938775510204078Q4.928571428571428 16.07142857142857 5.6020408163265305 16.86734693877551Q6.275510204081632 17.663265306122447 7.4846938775510194 18.061224489795915Q8.693877551020407 18.459183673469383 10.255102040816325 18.459183673469383Q11.112244897959183 18.459183673469383 11.908163265306122 18.35204081632653Q12.70408163265306 18.24489795918367 13.362244897959183 18.015306122448976Q14.020408163265305 17.78571428571428 14.51020408163265 17.43367346938775Q14.999999999999998 17.08163265306122 15.27551020408163 16.591836734693874Q15.551020408163263 16.10204081632653 15.551020408163263 15.459183673469385Q15.551020408163263 14.479591836734691 14.984693877551017 13.836734693877549Q14.418367346938773 13.193877551020407 13.45408163265306 12.765306122448978Q12.489795918367346 12.336734693877549 11.280612244897958 11.999999999999998Q10.07142857142857 11.663265306122447 8.785714285714285 11.326530612244895Q7.499999999999999 10.989795918367344 6.290816326530612 10.530612244897956Q5.081632653061224 10.07142857142857 4.117346938775509 9.413265306122447Q3.1530612244897953 8.755102040816325 2.586734693877551 7.760204081632652Q2.020408163265306 6.765306122448978 2.020408163265306 5.3265306122448965Q2.020408163265306 3.948979591836732 2.6020408163265305 2.877551020408161Q3.1836734693877546 1.8061224489795897 4.285714285714285 1.086734693877549Q5.387755102040815 0.3673469387755084 6.9183673469387745 -1.7763568394002505e-15Q8.448979591836734 -0.36734693877551194 10.377551020408163 -0.36734693877551194Q12.030612244897958 -0.36734693877551194 13.499999999999998 -0.01530612244898144Q14.969387755102039 0.33673469387754906 16.07142857142857 1.0714285714285694Q17.173469387755098 1.8061224489795897 17.80102040816326 2.9387755102040796Q18.428571428571427 4.071428571428569 18.428571428571427 5.632653061224488V5.999999999999998H15.030612244897958V5.602040816326529Q15.030612244897958 4.622448979591834 14.448979591836732 3.948979591836732Q13.867346938775508 3.2755102040816304 12.826530612244897 2.9081632653061202Q11.785714285714285 2.54081632653061 10.40816326530612 2.54081632653061Q8.785714285714285 2.54081632653061 7.683673469387754 2.8622448979591812Q6.581632653061224 3.1836734693877524 6.015306122448979 3.7499999999999982Q5.448979591836734 4.316326530612244 5.448979591836734 5.112244897959183Q5.448979591836734 5.999999999999998 6.030612244897958 6.566326530612243Q6.612244897959183 7.132653061224488 7.576530612244897 7.5306122448979576Q8.540816326530612 7.928571428571427 9.75 8.249999999999998Q10.959183673469386 8.57142857142857 12.229591836734691 8.9234693877551Q13.499999999999998 9.27551020408163 14.709183673469386 9.734693877551019Q15.918367346938773 10.193877551020407 16.882653061224488 10.867346938775508Q17.846938775510203 11.54081632653061 18.428571428571427 12.535714285714283Q19.01020408163265 13.530612244897956 19.01020408163265 14.969387755102037Q19.01020408163265 17.234693877551017 17.877551020408163 18.65816326530612Q16.74489795918367 20.08163265306122 14.770408163265305 20.724489795918362Q12.795918367346937 21.367346938775505 10.255102040816325 21.367346938775505Z"/><path d="M41.846938775510196 20.999999999999996V12.367346938775508L33.6734693877551 0.0H37.59183673469387L43.59183673469387 9.30612244897959H43.74489795918367L49.68367346938775 0.0H53.448979591836725L45.27551020408163 12.367346938775508V20.999999999999996Z"/><path d="M69.09183673469387 20.999999999999996V0.0H77.20408163265304Q80.44897959183672 0.0 82.74489795918366 1.1173469387755102Q85.0408163265306 2.2346938775510203 86.28061224489795 4.545918367346938Q87.52040816326529 6.857142857142856 87.52040816326529 10.499999999999998Q87.52040816326529 14.112244897959181 86.28061224489795 16.438775510204078Q85.0408163265306 18.765306122448976 82.74489795918366 19.882653061224488Q80.44897959183672 20.999999999999996 77.20408163265304 20.999999999999996ZM72.5204081632653 18.061224489795915H77.17346938775509Q78.79591836734693 18.061224489795915 80.06632653061223 17.632653061224488Q81.33673469387753 17.204081632653057 82.20918367346937 16.316326530612244Q83.0816326530612 15.428571428571427 83.52551020408161 14.066326530612244Q83.96938775510202 12.70408163265306 83.96938775510202 10.836734693877549V10.193877551020407Q83.96938775510202 8.295918367346937 83.52551020408161 6.933673469387753Q83.0816326530612 5.571428571428569 82.20918367346937 4.683673469387754Q81.33673469387753 3.795918367346939 80.06632653061223 3.36734693877551Q78.79591836734693 2.9387755102040813 77.17346938775509 2.9387755102040813H72.5204081632653Z"/><path d="M104.32653061224488 20.999999999999996V0.0H107.63265306122446L117.2142857142857 13.163265306122447Q117.39795918367345 13.346938775510202 117.62755102040813 13.683673469387752Q117.85714285714283 14.020408163265303 118.07142857142856 14.357142857142854Q118.28571428571426 14.693877551020407 118.37755102040813 14.908163265306118H118.53061224489794Q118.53061224489794 14.448979591836732 118.53061224489794 14.020408163265303Q118.53061224489794 13.591836734693874 118.53061224489794 13.163265306122447V0.0H121.83673469387753V20.999999999999996H118.65306122448978L108.94897959183672 7.683673469387754Q108.70408163265304 7.316326530612244 108.33673469387753 6.749999999999999Q107.96938775510202 6.183673469387754 107.78571428571426 5.877551020408161H107.63265306122446Q107.63265306122446 6.30612244897959 107.63265306122446 6.749999999999998Q107.63265306122446 7.193877551020407 107.63265306122446 7.683673469387754V20.999999999999996Z"/><path d="M139.65306122448976 20.999999999999996V0.0H155.93877551020404V2.9387755102040813H143.08163265306118V8.785714285714285H154.59183673469383V11.724489795918364H143.08163265306118V18.061224489795915H156.1224489795918V20.999999999999996Z"/><path d="M179.1428571428571 20.999999999999996V12.367346938775508L170.969387755102 0.0H174.88775510204079L180.88775510204079 9.30612244897959H181.04081632653057L186.97959183673464 0.0H190.74489795918362L182.57142857142853 12.367346938775508V20.999999999999996Z"/></g></g></svg>